<svg width="230" height="230" viewBox="0 0 230 230" fill="none" xmlns="http://www.w3.org/2000/svg">
<path d="M73.552 202.807C62.8507 197.457 57.5 190.549 57.5 182.083C57.5 178.25 58.6579 174.696 60.9739 171.422C63.2899 168.148 66.5243 165.313 70.677 162.917L85.7708 177.052C84.3333 177.691 82.776 178.41 81.0989 179.208C79.4218 180.007 78.1041 180.965 77.1458 182.083C79.2222 184.639 84.0139 186.875 91.5208 188.792C99.0277 190.708 106.854 191.667 115 191.667C123.146 191.667 131.012 190.708 138.599 188.792C146.186 186.875 151.017 184.639 153.094 182.083C151.976 180.806 150.538 179.767 148.781 178.969C147.024 178.17 145.347 177.451 143.75 176.813L158.604 162.438C163.076 164.993 166.51 167.908 168.906 171.182C171.302 174.457 172.5 178.09 172.5 182.083C172.5 190.549 167.149 197.457 156.448 202.807C145.746 208.158 131.931 210.833 115 210.833C98.0694 210.833 84.2534 208.158 73.552 202.807ZM115.24 158.125C131.052 146.465 142.951 134.766 150.937 123.026C158.924 111.286 162.917 99.507 162.917 87.6875C162.917 71.3959 157.726 59.0972 147.344 50.7917C136.962 42.4861 126.181 38.3334 115 38.3334C103.819 38.3334 93.0382 42.4861 82.6562 50.7917C72.2743 59.0972 67.0833 71.3959 67.0833 87.6875C67.0833 98.3889 70.9965 109.53 78.8229 121.109C86.6493 132.689 98.7882 145.028 115.24 158.125ZM115 182.083C92.4791 165.472 75.6684 149.34 64.5677 133.688C53.467 118.035 47.9166 102.701 47.9166 87.6875C47.9166 76.3472 49.9531 66.4045 54.026 57.8594C58.0989 49.3143 63.3298 42.1667 69.7187 36.4167C76.1076 30.6667 83.2951 26.3542 91.2812 23.4792C99.2673 20.6042 107.174 19.1667 115 19.1667C122.826 19.1667 130.733 20.6042 138.719 23.4792C146.705 26.3542 153.892 30.6667 160.281 36.4167C166.67 42.1667 171.901 49.3143 175.974 57.8594C180.047 66.4045 182.083 76.3472 182.083 87.6875C182.083 102.701 176.533 118.035 165.432 133.688C154.332 149.34 137.521 165.472 115 182.083ZM115 105.417C120.271 105.417 124.783 103.54 128.536 99.7865C132.29 96.033 134.167 91.5209 134.167 86.25C134.167 80.9792 132.29 76.467 128.536 72.7136C124.783 68.9601 120.271 67.0834 115 67.0834C109.729 67.0834 105.217 68.9601 101.464 72.7136C97.71 76.467 95.8333 80.9792 95.8333 86.25C95.8333 91.5209 97.71 96.033 101.464 99.7865C105.217 103.54 109.729 105.417 115 105.417Z" fill="#0DA74A"/>
</svg>
